<?xml version='1.0' encoding='utf-8'?>
<svg xmlns="http://www.w3.org/2000/svg" width="846.67mm" height="846.67mm" clip-rule="evenodd" fill-rule="evenodd" image-rendering="optimizeQuality" shape-rendering="geometricPrecision" text-rendering="geometricPrecision" version="1.1" viewBox="0 0 84667 84667"> <defs> <style type="text/css">  .str0 {stroke:black;stroke-width:677.33;stroke-linecap:round;stroke-linejoin:round} .fil0 {fill:none}  </style> </defs> <rect class="fil0 str0" x="7898" y="24077" width="68871" height="36513" rx="1577" ry="1587"/> <rect class="fil0 str0" x="59439" y="24077" width="4128" height="31935"/> <line class="fil0 str0" x1="76769" x2="7898" y1="56012" y2="56012"/> <circle class="fil0 str0" cx="66892" cy="34737" r="881"/> <circle class="fil0 str0" cx="70167" cy="34737" r="881"/> <circle class="fil0 str0" cx="73443" cy="34737" r="881"/> <circle class="fil0 str0" cx="73443" cy="38013" r="881"/> <circle class="fil0 str0" transform="matrix(2.2606e-14 .85355 -.85355 2.2606e-14 73443 41288)" r="1032"/> <circle class="fil0 str0" cx="66892" cy="38013" r="881"/> <circle class="fil0 str0" transform="matrix(2.2606e-14 .85355 -.85355 2.2606e-14 66892 41288)" r="1032"/> <circle class="fil0 str0" cx="70167" cy="38013" r="881"/> <circle class="fil0 str0" transform="matrix(2.2606e-14 .85355 -.85355 2.2606e-14 70168 41288)" r="1032"/> <rect class="fil0 str0" x="65490" y="44601" width="2315" height="1323" rx="260" ry="260"/> <rect class="fil0 str0" x="69010" y="44601" width="2315" height="1323" rx="260" ry="260"/> <rect class="fil0 str0" x="72530" y="44601" width="2315" height="1323" rx="260" ry="260"/> <rect class="fil0 str0" x="65405" y="27940" width="9525" height="4233" rx="678" ry="489"/> <rect class="fil0 str0" x="12713" y="28615" width="41910" height="22860" rx="476" ry="476"/> <rect class="fil0" width="84667" height="84667"/> </svg>